# xmcd
#
# Track frame offsets:
#	150
#	11417
#	26564
#	39099
#	51226
#	61492
#	72489
#	87783
#	99576
#	111352
#	123206
#	134974
#	150338
#	159200
#	169774
#	182646
#	198991
#	214164
#	226590
#	247910
#	273273
#	286275
#	298953
#	309738
#	323418
#
# Disc length: 4496 seconds
#
# Revision: 13
# Processed by: cddbd v1.5.2PL0 Copyright (c) Steve Scherf et al.
# Submitted via: audiograbber 1.83.01
#
DISCID=59118e19
DTITLE=Various Artist - Best of Blues [CD 1)
DYEAR=1999
DGENRE=Blues
TTITLE0=John Lee Hooker - 1. Boom Boom
TTITLE1=Howlin'  Wolf - 2. Commit a Crime
TTITLE2=Muddy Waters - 3. Mean Mistreater
TTITLE3=Bo Diddley - 4. I' m a Man
TTITLE4=Louis Armstrong - 5. What a wonderful World
TTITLE5=B. B. King - 6. Catfish Blues
TTITLE6=Elmore James - 7. I Believe
TTITLE7=Eric Clapton - 8. Got to Hurry
TTITLE8=Dinah Washington - 9. Harbour Lights
TTITLE9=John Lee Hooker - 10. Crawlin'  Kingsnake
TTITLE10=Louis Armstrong - 11. Ramblin'  Rose
TTITLE11=Albert Collins - 12. Frosty
TTITLE12=Canned Heat - 13. Pretty Thing
TTITLE13=Fats Domino - 14. Jambalaya
TTITLE14=Muddy Waters - 15. Got my Mojo Working
TTITLE15=B.B. King - 16. The other Night Blues
TTITLE16=Dinah Washington - 17. Smoke gets in your Eyes
TTITLE17=Elmore James - 18. Dust in my Broom
TTITLE18=Lightnin'  Hopkins - 19. Jake Head Boogie
TTITLE19=Howlin'  Wolf - 20. Little red Rooster
TTITLE20=Louis Armstrong - 21. C' est si Bon (live)
TTITLE21=Elmore James - 22. Make a little Love
TTITLE22=Fats Domino - 23. Walking to New Orleans
TTITLE23=Moody Blues - 24. Time is on my Side
TTITLE24=Canned Heat - 25. Louise
EXTD=
EXTT0=
EXTT1=
EXTT2=
EXTT3=
EXTT4=
EXTT5=
EXTT6=
EXTT7=
EXTT8=
EXTT9=
EXTT10=
EXTT11=
EXTT12=
EXTT13=
EXTT14=
EXTT15=
EXTT16=
EXTT17=
EXTT18=
EXTT19=
EXTT20=
EXTT21=
EXTT22=
EXTT23=
EXTT24=
PLAYORDER=
